<?xml version="1.0" encoding="utf-8"?>
<!-- Generator: Adobe Illustrator 22.0.0, SVG Export Plug-In . SVG Version: 6.00 Build 0)  -->
<svg preserveAspectRatio="none" version="1.2" baseProfile="tiny" id="Capa_1" xmlns="http://www.w3.org/2000/svg" xmlns:xlink="http://www.w3.org/1999/xlink"
	 x="0px" y="0px" viewBox="0 0 958.608 735.956" xml:space="preserve">
<g>
	<path fill="#F05744" d="M961.304,581.978c-8.002,5.2378-16.004,10.4755-24.006,15.7133c-1.7256-0.3362-2.2963-1.7637-2.9108-3.1229
		c-8.5367-18.8787-17.1728-37.7125-25.6475-56.6193c-1.5642-3.4898-3.3173-6.8491-5.5143-9.9763
		c7.4889-5.7529,15.9446-9.9885,23.7941-15.173c3.1152-2.0576,3.2826,0.8497,3.9796,2.3654
		c5.9498,12.9385,11.7616,25.9405,17.6998,38.8845c4.1324,9.0079,8.3986,17.9544,12.6051,26.9283
		C961.304,581.3113,961.304,581.6447,961.304,581.978z"/>
	<path fill="#D23B23" d="M475.9817,547.2133c-28.0261-6.2161-55.954-12.9355-84.1204-18.433
		c-13.7979-2.693-25.3518-8.3525-36.2468-17.0741c-19.0652-15.2618-38.8674-29.6034-58.3781-44.3077
		c-1.4278-1.076-2.6388-2.6034-4.6714-2.6328c-0.4489-1.2686,0.2725-2.2633,0.8339-3.2512
		c11.5371-20.3015,12.3249-41.9738,8.4496-64.3267c-1.0157-5.8584-3.5414-11.4445-3.1907-17.5424
		c2.575-2.4954,4.2576,0.109,5.9394,1.2601c15.3975,10.5398,31.1222,20.6966,45.787,32.1815
		c16.4894,12.9137,35.2365,20.4521,54.6126,27.3212c49.4602,17.5347,98.7213,35.6273,148.0459,53.5411
		c3.2884,1.1943,6.0101,1.1619,8.9464-0.7324c6.8591-4.425,13.7728-8.7682,20.7867-12.9446
		c32.8395-19.3318,65.356-39.202,97.897-59.0318c1.9801-1.2067,3.8576-2.6607,6.3345-2.7124
		c5.7232,2.0408,8.9956,7.165,13.3478,10.8837c10.9261,9.3355,21.7663,18.7878,32.233,28.648
		c0.8023,0.8096,1.666,1.5463,2.6324,2.1604c7.8839,7.0703,15.9145,13.9768,23.714,21.1431
		c9.8003,8.4109,19.3753,17.0756,29.0586,25.6166c6.6945,5.725,12.9442,11.9571,19.8699,17.4203
		c11.2565,10.5939,23.0468,20.5919,34.5451,30.9158c1.234,1.108,2.7104,1.9846,2.9377,3.8427
		c0.6222,0.6971,1.2444,1.3942,1.8666,2.0914c-0.2737,3.4902-3.454,4.2485-5.6791,5.6373
		c-19.1415,11.9477-38.4085,23.6943-57.5446,35.6508c-8.5831,5.3628-17.1624,10.7313-25.7848,16.0306
		c-1.8317,1.1257-3.6064,2.4258-5.9365,2.2622c-5.8856-1.5792-10.7287-5.2596-15.9873-8.0749
		c-13.1992-7.0669-26.2195-14.4655-39.3533-21.6554c-1.8938-1.0367-3.7528-2.162-5.2991-3.718
		c-3.1526-6.5767-6.4489-13.1011-7.8285-20.3634c2.2205-3.1365,6.0517-4.952,6.2877-9.7133
		c0.6465-13.0426-9.8124-22.3884-22.7951-19.9511c-0.6607,0.124-1.3174,0.1528-1.9819,0.0369
		c-3.4592-2.1756-5.5594-5.6705-8.1801-8.6307c-14.7586-16.671-32.1089-29.4885-53.7834-35.4898
		c-15.058-4.1693-29.2864-2.5135-43.0341,6.0389c-22.7392,14.1462-45.993,27.4691-69.067,41.0765
		c-1.8665,1.1006-3.6688,2.2883-5.4632,3.4981C482.6266,545.3189,480.0445,548.457,475.9817,547.2133z"/>
	<path fill="#3E4347" d="M299.2841,378.9496c3.7145,15.1803,7.1735,30.4258,6.0217,46.2041
		c-1.0359,14.1909-3.7181,27.9477-12.7418,39.6129c0.001-0.0009-0.3094,0.2101-0.3094,0.2101
		c-3.1703-0.7128-5.351-0.2688-4.8295,3.8101c0.1433,1.1207-0.4015,2.2391-1.1296,3.1747l-0.006,0.006
		c-7.1975-0.1638-12.3737,4.7947-17.7994,8.0894c-15.9176,9.6659-32.3795,18.4602-47.7244,29.0918
		c-3.3528,2.323-7.461,3.6288-10.9741,5.8765c-1.1935,0.7636-2.53,1.1534-3.7678,0.3741c-1.7314-1.0901-0.8149-2.7043-0.3761-4.0428
		c1.9303-5.8873,3.0139-11.9398,3.7647-18.0684c0.1213-0.99,0.5285-1.9776,0.4387-2.9587
		c-1.322-14.4532,0.6139-29.038-3.1015-43.4476c-6.7055-26.0063-17.3924-49.9312-33.9961-71.1342
		c-15.2081-19.4208-33.2906-35.3738-55.8217-45.7792c-9.0993-4.2022-18.7601-6.8329-28.8255-7.6826
		c-1.6337-0.1379-3.9776,0.2373-4.4756-1.4326c-0.6503-2.1805,1.9186-2.852,3.352-3.6716
		c13.1462-7.5167,25.974-15.5714,39.1051-23.1056c5.0649-2.9061,9.503-6.7902,14.8293-9.2297
		c2.4152-1.1062,1.1521-3.6334,2.2633-5.2065c-0.0267-0.339,0.1087-0.5906,0.4064-0.7549c1.6387-3.1575,5.2784-3.7568,7.6402-5.9956
		c5.7339-3.4141,11.6869-6.2018,18.5212-6.4489c2.3065,3.6418,3.3831,0.5614,4.7639-0.8893
		c6.826-2.3431,13.4128-0.1491,20.0494,1.0231c18.2034,3.7901,33.6891,12.8835,48.0094,24.3851
		c8.3548,6.7103,15.4184,14.6313,22.3979,22.668c13.8869,18.5071,25.9159,38.0518,33.4055,60.1111
		C298.9406,375.4058,300.1285,377.0156,299.2841,378.9496z"/>
	<path fill="#3E4347" d="M485.1058,542.9784c13.7688-9.2698,28.4334-17.0566,42.5804-25.7016
		c11.3281-6.9224,22.8096-13.5933,34.1613-20.4777c15.6434-9.4872,31.9563-8.8304,48.3741-2.8584
		c21.6744,7.8842,38.7008,22.1657,53.0515,39.8991c0.835,1.0317,1.6644,2.0681,2.4964,3.1022
		c2.2255,1.0536,3.4809,3.0833,4.7516,4.9992c5.3113,8.0081,11.0457,15.7929,13.952,25.1392
		c2.6569,6.6943,5.3139,13.3887,7.9709,20.0831c2.688,3.6112,3.2274,7.9898,4.1581,12.1759
		c3.6896,16.5974,4.8237,33.2307,0.1531,49.8704c-0.7213,2.5698-1.4886,5.1126-2.83,7.435
		c-0.7897,1.489-1.9195,2.7119-3.3436,3.5793c-9.8771,6.0154-19.5764,12.3193-29.5403,18.1935
		c-0.8735,0.515-1.89,0.5677-2.5983,0.8307c2.7902,0.6539,6.0543,0.7659,7.2994,4.3981
		c-23.1218,13.7946-46.2435,27.5892-69.3652,41.3838c-2.7581-1.28-0.4539-2.6137,0.174-3.5303
		c2.2599-3.2991,4.7367-6.462,6.5167-10.0577c6.4489-13.028,8.2073-26.7865,7.1702-41.2239
		c-2.2417-31.205-14.6239-58.2311-33.4491-82.592c-14.8586-19.2279-33.0327-34.2922-56.4879-42.0076
		c-9.5982-3.1573-19.4478-4.556-29.5268-2.1078C488.8869,543.9695,486.8489,544.6693,485.1058,542.9784z"/>
	<path fill="#62696D" d="M191.5416,530.1551c-9.5238,6.9702-18.8762,14.1583-31.143,15.884
		c-15.9877,2.2493-30.5326-2.0701-43.8214-10.2748c-32.841-20.2768-55.7767-49.0787-70.1172-84.682
		c-9.0208-22.3962-14.3316-45.6945-14.0683-70.0251c0.0814-7.5229,1.0536-14.965,3.1414-22.187
		c4.3049-14.8911,13.7242-25.4031,27.8448-31.7364c26.1181-7.7508,49.1146,0.5346,70.0106,15.2212
		c39.2497,27.5864,62.8687,65.7855,72.4543,112.5787c3.7043,18.0831,3.9326,36.2884-2.2851,54.1246
		C200.837,516.8632,196.8593,523.8702,191.5416,530.1551z"/>
	<path fill="#D23B23" d="M85.4321,94.1535c63.8898-24.0768,127.7795-48.1537,191.6692-72.2305
		c4.1393,1.6252,7.0048,5.0391,10.0137,7.9497c11.6707,11.2892,23.7943,22.086,35.6093,33.2149
		c6.6288,6.2439,13.2386,12.5153,19.9482,18.6763c1.1757,1.0796,2.9008,1.8202,2.4425,3.9194
		c-26.6189,14.0995-53.2379,28.199-79.8568,42.2984c-0.7798,1.5716-2.1308,2.4775-3.6494,3.236
		c-14.4028,7.1934-28.4539,15.0596-42.7793,22.3983c-3.2801,1.1914-6.0443,3.5427-9.5309,4.2783
		c-9.1326,3.36-17.2294,8.7836-25.9232,13.0186c-2.2201,1.0815-4.3951,2.2556-6.5908,3.3871
		c-3.0729,0.3232-4.9021-1.9505-6.76-3.6477c-15.0953-13.7895-30.6854-27.0172-45.9804-40.5788
		c-11.9348-10.5822-23.8394-21.2076-35.9898-31.5483C86.7157,97.3858,84.9047,96.4478,85.4321,94.1535z"/>
	<path fill="#3E4347" d="M443.3542,112.0737c22.8347-13.6116,45.8624-26.9131,68.4258-40.9603
		c12.0046-7.4737,24.4922-9.7811,38.132-7.3865c17.0297,2.9897,31.6691,11.0758,44.5267,22.193
		c31.7467,27.4492,50.8509,61.9169,55.4662,103.8435c1.6987,15.4307-0.1774,30.6019-7.6499,44.5855
		c-4.5616,8.5363-10.7601,15.5636-19.7656,19.7078c-2.292,0.9534-3.7938-0.7184-5.3726-1.7668
		c-18.8521-12.5183-37.6917-25.0557-56.5052-37.6321c-1.522-1.0174-3.0518-2.0395-4.0045-3.6858
		c-6.3885-20.0186-16.1685-38.2177-29.5336-54.4303c-15.0602-18.2689-32.6808-33.1053-55.8625-39.992
		c-7.6297-2.2666-15.4335-3.9799-23.552-2.6968C446.0563,114.1061,443.8998,114.7872,443.3542,112.0737z"/>
	<path fill="#3E4347" d="M756.3868,396.149c20.8238-12.4539,41.6993-24.8228,62.4386-37.4158
		c5.8719-3.5655,11.663-6.9266,18.6386-7.8709c14.0204-1.8979,26.7944,1.9453,38.6811,8.778
		c30.6649,17.6267,49.9046,44.3219,60.0654,77.7812c5.1948,17.1063,7.1364,34.5169,2.0829,52.1202
		c-2.8428,9.9025-8.0644,18.3249-16.4799,24.2971c-4.2622,3.0248-9.374,4.8215-13.9292,7.47
		c-17.5233,10.1884-34.9768,20.4965-52.4564,30.76c-2.8316-1.6529-0.4232-3.254,0.3076-4.4509
		c4.1331-6.7699,6.9598-13.9763,8.2502-21.8141c3.0129-18.3004-0.2717-35.8183-6.7733-52.8509
		c-7.1032-18.6086-17.8991-35.0699-31.7734-49.1803c-13.7692-14.0033-29.9817-24.2576-50.0927-26.9744
		c-4.5455-0.6141-8.9229-0.2507-13.3979,0.3456C760.1556,397.3828,757.7337,399.1334,756.3868,396.149z"/>
	<path fill="#62696D" d="M485.1058,542.9784c4.5757-0.6647,9.1413-1.8157,13.7287-1.9097
		c19.876-0.4073,36.8842,7.6174,52.2187,19.2953c28.9168,22.0214,47.2736,51.3425,56.769,86.1206
		c5.2531,19.2401,6.4911,38.8117-0.3109,58.1734c-2.3429,6.6691-5.9149,12.5952-10.3853,18.0264
		c-0.5309,0.645-1.934,1.1143-0.7489,2.346c-20.7043,16.4012-42.3962,15.7521-64.0393,2.6415
		c-29.3891-17.8029-49.3653-43.7679-61.9473-75.4366c-8.2945-20.877-13.2008-42.5353-12.4336-65.227
		c0.5336-15.7809,4.6786-29.8522,18.0237-39.7953C479.023,545.8017,482.0644,544.3901,485.1058,542.9784z"/>
	<path fill="#D23B23" d="M263.8873,314.0659c-7.7097-8.4833-15.4079-16.9597-24.4933-24.0636
		c-13.252-10.3618-27.7158-18.2384-44.1555-22.2305c-7.3487-3.1951-13.4964-8.3166-20.1668-12.5984
		c-0.9693-0.6222-1.8645-1.4208-1.748-2.7862c8.0463-4.6548,16.1727-9.179,24.0957-14.0349
		c2.7982-1.7149,5.3697-1.9772,8.4029-1.1803c9.9474,2.6136,19.9381,5.0623,29.8846,7.6791
		c2.6952,0.7091,5.0173,0.6497,7.5146-0.9053c7.8578-4.8929,16.4255-8.5702,24.0387-13.8993
		c2.3817-0.7477,3.6972,1.1566,5.1916,2.2762c37.1956,27.8663,74.372,55.7586,111.5887,83.5967
		c3.778,2.826,5.545,6.097,5.6199,10.9422c0.1522,9.8436,4.5097,18.2853,10.0189,26.2003
		c11.236,16.1427,26.6759,27.2436,43.6302,36.5675c1.5539,0.8546,4.1413,0.77,4.0082,3.59
		c-10.5445,4.5776-20.5997,10.1219-30.7367,15.5073c-2.1923,1.1647-4.3823,2.4615-7.0199,2.3588
		c-2.2877-0.1223-4.0335-1.4615-5.8177-2.6684c-44.3945-30.0286-89.0464-59.6724-133.6439-89.3975
		C267.8786,317.5394,266.0073,315.6542,263.8873,314.0659z"/>
	<path fill="#9B2C1B" d="M447.3281,392.9236c-15.3691-7.397-29.4275-16.7398-40.8782-29.4441
		c-10.114-11.2212-18.6005-23.4676-18.1356-39.6437c0.098-3.4114-2.4267-4.9567-4.632-6.6099
		c-37.8699-28.3906-75.7732-56.7367-113.6685-85.0934c-0.9223-0.6902-1.8365-1.3912-2.754-2.0866
		c-18.2955-13.7317-36.5611-27.505-54.9271-41.1429c-2.2295-1.6556-3.1514-3.3332-3.091-6.1195
		c0.1796-8.2925,0.06-16.5916,0.0571-24.8886c2.3678-2.7883,5.7021-3.8312,8.9808-4.9745c1.6875,1.5874,1.2783,3.693,1.3056,5.6414
		c0.0747,5.3319,0.1207,10.6678-0.0077,15.9971c-0.078,3.2385,1.1843,5.2774,4.1072,6.6961
		c12.8898,6.2565,25.784,12.5102,38.7256,18.652c14.294,6.7837,28.5892,13.5756,42.9191,20.2864
		c26.097,12.2214,51.9109,25.0489,77.948,37.4069c3.804,1.8055,7.0478,1.8996,10.8815,0.0713
		c21.199-10.1099,42.5804-19.8336,63.7883-29.9276c1.8406-0.876,3.7943-2.4835,5.9333-0.4449
		c1.1166,2.3521,0.9168,4.7864,0.4714,7.237c-0.7993,2.5364-3.1056,3.2726-5.1569,4.3555
		c-29.8983,15.7848-44.9161,40.783-46.6272,74.3683c-1.2265,24.0737,10.8321,40.9408,29.6456,53.1118
		c27.3081,17.6662,57.6646,23.8252,89.8506,18.653c19.0241-3.0571,32.0455-13.9157,37.626-32.8471
		c0.5644-1.9144,1.2031-3.8096,1.8739-5.6953c6.1707-10.7609,6.8685-22.5065,6.2335-34.4948
		c-0.0779-1.4707-0.4616-2.9413-0.0308-4.4161c2.5072-1.9594,3.4814,0.463,4.5665,1.797c2.6381,3.2431,4.6149,6.91,6.1572,10.8044
		c14.4714,32.6258,1.2068,64.0477-30.9476,78.5445c-13.5344,6.102-27.9292,8.4061-42.7493,8.7079
		c-21.5511,0.4388-42.494-2.3071-62.4756-10.7802C450.3672,395.8176,448.0952,395.3632,447.3281,392.9236z"/>
	<path fill="#F05744" d="M752.1994,620.1312c7.3672-2.7912,13.5333-7.6813,20.1484-11.7458
		c24.2996-14.9302,48.4377-30.1229,72.6231-45.2387c0.8215-0.5134,1.4976-1.2592,2.2415-1.8966
		c7.2369-2.925,13.2734-7.9148,20.0398-11.6489c6.1691-3.4044,11.6337-8.0286,18.3023-10.5679
		c9.4495,19.0303,19.0854,37.9662,28.8461,56.8384c2.206,4.2653,4.8522,8.3176,6.1775,13
		c-16.6379,11.2742-33.2431,22.597-49.9211,33.8115c-25.921,17.4294-51.8914,34.785-77.8409,52.1719
		c-0.4047-2.6921-2.2-4.2097-4.3322-5.6909c-21.8082-15.1486-43.6685-30.2225-65.3811-45.5084
		c-1.08-0.7603-2.2705-1.3984-3.0001-2.5731c-0.1642-0.9314,0.2499-1.6907,0.9573-2.15
		C731.2344,632.3267,741.1537,625.2948,752.1994,620.1312z"/>
	<path fill="#F05744" d="M463.2765,226.8909c-18.9646,8.8307-37.9278,17.6643-56.8958,26.4877
		c-2.1063,0.9798-4.5318,1.5267-6.3106,2.9137c-8.1319,6.341-15.685,3.795-23.8678-0.3051
		c-21.8315-10.939-43.8983-21.4107-65.9176-31.9723c-29.0521-13.9348-58.1177-27.8425-87.2643-41.5776
		c-3.5499-1.6729-4.915-3.6283-4.7536-7.5586c0.3-7.307,0.04-14.637,0.013-21.958c15.3691-8.8603,31.1931-16.8634,46.9784-24.9392
		c0.0141,5.995,0.166,11.9942-0.0202,17.983c-0.0838,2.6939,0.6141,4.0966,3.3059,5.1237
		c27.0104,10.3063,53.9589,20.7746,80.9402,31.1572c1.2058,0.464,2.5595,0.5441,3.8443,0.803
		c9.8679,2.4754,19.0962,6.7424,28.5286,10.3936c25.7434,9.9651,51.4992,19.899,77.2146,29.9366
		C460.8168,224.0598,463.1057,224.2544,463.2765,226.8909z"/>
	<path fill="#D23B23" d="M463.2765,226.8909c-9.2993-4.7081-19.2125-7.9197-28.8827-11.7049
		c-25.4083-9.9456-50.9228-19.6196-76.3726-29.4597c-1.661-0.6422-3.1329-1.7739-4.6928-2.6779
		c5.3213-3.0228,10.5616-6.2033,16.0002-8.9976c2.4883-1.2785,3.4598-2.8359,2.9123-5.4736c-0.0334-0.1609,0.009-0.342-0.0423-0.494
		c-3.6093-10.6808,1.2089-16.5565,10.7185-20.9903c8.0583-3.7571,15.4124-9.0247,23.0782-13.6238
		c2.3495-0.0141,4.0092,1.5005,5.7876,2.6853c75.2277,50.1192,150.4099,100.3067,225.626,150.4435
		c1.7457,1.1637,3.938,1.9917,4.4185,4.4593c-0.2484,2.1369-1.928,3.0036-3.551,3.7954
		c-15.9018,7.7589-31.5342,16.0432-47.2574,24.1506c-1.1734,0.6051-2.3755,1.1947-3.7724,1.0023
		c-2.4325-4.6747-4.778-9.407-8.6707-13.1163c-2.9841-4.3596-4.6362-9.4049-7.2125-13.9778
		c-3.4002-12.7507-9.4057-24.183-18.1212-34.031c-15.02-16.9716-33.8578-26.4106-56.6342-27.5624
		c-9.7196-0.4915-19.2396,0.6033-28.461,3.8881c-1.5375,0.5477-3.1807,1.1565-4.7399-0.0711
		C463.3636,232.3869,463.32,229.6389,463.2765,226.8909z"/>
	<path fill="#FEE52E" d="M641.354,291.0016c-20.2877-13.6622-40.5292-27.3938-60.8721-40.9735
		c-56.3795-37.6356-112.8022-75.2065-169.202-112.8116c-1.7977-1.1986-3.5328-2.4911-5.2908-3.7436
		c5.62-3.5006,11.2338-6.9973,16.8475-10.4941c3.0935-1.7494,5.4059,0.1526,7.7511,1.7089
		c13.1775,8.7443,26.3457,17.5028,39.4803,26.3113c27.3736,18.3577,55.0062,36.329,82.1305,55.0592
		c1.9286,1.3318,3.7906,2.6821,5.1871,4.5888c21.5252,14.7338,43.1254,29.3551,65.1036,43.41
		c12.1038,8.1739,24.1845,16.3817,36.3297,24.4931c2.4031,1.605,4.2966,3.5065,5.8562,5.9588
		c21.9202,34.4668,43.9081,68.8907,65.863,103.3354c0.7799,1.2236,1.9715,2.3138,1.6773,4.0036
		c-5.0694,5.1009-11.3623,8.2002-17.8806,10.9371c-2.8589-0.0127-3.8751-2.3464-5.1024-4.2451
		c-16.4509-25.4509-32.79-50.9739-49.216-76.441c-5.2346-8.1157-10.3469-16.3105-15.7054-24.3459
		C642.9205,295.6678,641.5621,293.5931,641.354,291.0016z"/>
	<path fill="#62696D" d="M756.3868,396.149c0.2727,0.1724,0.5921,0.5414,0.8115,0.4893
		c21.0297-4.9959,39.2874,2.2735,55.3895,14.4838c28.209,21.3911,45.8027,50.0776,52.3958,84.8883
		c3.5724,18.8625,2.1497,37.4537-9.3239,54.0076c-0.4434,0.6396-1.2678,1.2417-0.2317,2.0508
		c-3.3604,2.3629-6.7208,4.7258-10.0816,7.0894c-13.0782-10.9841-25.9251-22.2281-38.2505-34.0578
		c1.1887-1.5488,2.9698-1.5389,4.5718-1.3984c8.8486,0.7765,19.6949-8.8349,20.1946-20.4428
		c1.1728-27.2443-10.4624-47.821-33.3459-62.2437c-4.4448-2.8014-9.463-4.1905-14.6566-4.5973
		c-11.0803-0.8679-19.7141,7.0182-20.2281,18.0945c-0.3516,7.5791,0.4925,14.9548,3.07,22.1102
		c-1.4379,3.8847-4.755,4.8543-8.3623,5.3719c-7.9711-7.0283-15.9422-14.0567-23.9133-21.085
		c-2.8052-4.4662-1.9527-9.7563-3.2959-14.5569c-0.6634-4.4723-0.3947-8.9686-0.3349-13.4547
		c0.0241-1.8053,0.0209-3.7128,1.7302-4.974c1.1419-4.1072,2.124-8.2672,3.4572-12.3113
		C739.3058,405.5322,747.3591,400.3057,756.3868,396.149z"/>
	<path fill="#D23B23" d="M147.7085,189.6985c-15.0017,7.9024-30.0444,15.7285-44.9682,23.7753
		c-2.7786,1.4982-4.5161,1.3752-6.8737-0.8001C65.5161,184.67,35.106,156.7304,4.5955,128.9011
		c-3.3356-3.0425-1.8657-3.7173,1.2322-4.8613c13.5573-5.0065,27.0641-10.1499,40.5892-15.2436
		c1.9816-0.1581,3.4482,0.852,4.923,2.014c30.9403,24.3795,61.5554,49.1677,92.4349,73.6239
		C145.4549,185.7648,148.0376,186.7346,147.7085,189.6985z"/>
	<path fill="#FEE52E" d="M147.7085,189.6985c-8.7754-8.1511-18.4434-15.2112-27.7774-22.6771
		c-23.2481-18.5951-46.5445-37.1299-69.8342-55.6728c-1.1655-0.928-2.4517-1.7044-3.6808-2.552
		c9.5715-5.1989,20.1148-7.951,30.1687-11.9334c2.8501-1.1289,5.5417-2.9909,8.8474-2.7098
		c10.6536,9.5024,21.2634,19.0545,31.9707,28.4962c18.8202,16.5956,37.6965,33.1276,56.5658,49.6674
		c0.8594,0.7533,1.8803,1.3223,2.8211,1.98c0.1922,0.7209,0.0101,1.312-0.6758,1.6391
		C166.6167,180.4644,157.5706,185.9239,147.7085,189.6985z"/>
	<path fill="#62696D" d="M557.3855,210.6469c-23.9322-15.9263-47.8739-31.8385-71.7936-47.7835
		c-18.8085-12.5378-37.5955-25.1078-56.3751-37.6888c-1.9547-1.3095-3.8393-2.6601-6.3795-2.196
		c5.8831-5.4325,13.4816-7.6389,20.5169-10.9048c0.5619,0.7329,1.3567,0.9774,2.2093,0.869
		c22.1087-2.8098,40.7039,5.8967,57.5491,18.6607c26.3025,19.93,43.834,46.2912,54.1081,77.5583
		C557.3729,209.6249,557.3348,210.1504,557.3855,210.6469z"/>
	<path fill="#F05744" d="M665.7424,683.6466c-2.5541-1.4001-5.1081-2.8001-7.9041-4.3328
		c11.6874-7.4705,23.1867-14.8209,34.6861-22.1713c1.9484-1.8748,3.7166-4.0612,6.8177-3.9506
		c5.8694,2.4346,10.8362,6.4061,16.0792,9.8397c19.155,12.5449,38.3563,25.0193,57.5038,37.5756
		c1.7609,1.1547,3.8797,2.0323,4.5335,4.3746c-7.7933,5.3343-15.6526,10.576-23.3417,16.0565
		c-2.4616,1.7545-4.3286,0.6434-6.4221-0.315c-25.7659-11.7968-51.5294-23.5986-77.3055-35.373
		C668.8931,684.6669,667.2937,684.2093,665.7424,683.6466z"/>
	<path fill="#D23B23" d="M302.4074,12.3009c9.0007-3.391,18.0003-6.7852,27.0033-10.1702c1.6894-0.6352,3.1165-1.242,4.9233,0.3971
		c20.5518,18.6444,41.2048,37.1771,62.2106,56.0815c-10.3788,5.4186-20.3581,10.6286-30.3375,15.8386
		c-5.6435-2.7011-9.6803-7.4387-14.0709-11.6014c-9.6577-9.1563-18.9291-18.7214-28.3073-28.1703
		c-5.9767-6.0217-12.8236-11.1201-18.4736-17.4794C304.0802,15.7615,302.1076,14.7017,302.4074,12.3009z"/>
	<path fill="#3E4347" d="M191.5416,530.1551c-1.6098-1.4244,0.2378-1.9601,0.7799-2.7041
		c8.6375-11.8527,13.0795-25.0487,14.0855-39.7292c2.3179-33.8215-8.4282-63.9608-25.2782-92.4338
		c-12.6138-21.3148-29.3216-38.9008-49.7903-52.8201c-14.808-10.0698-31.0491-16.5797-49.1191-17.0857
		c-5.1604-0.1445-10.5731,0.4645-15.6736,2.0583c-1.1416,0.3568-2.2107,0.8483-3.1679-0.3066
		c26.6008-15.8314,53.2016-31.6628,79.8023-47.4943c1.9122,3.5648,1.2439,5.3098-2.9031,7.1228
		c-5.9971,2.6219-11.089,7.0862-16.8704,10.3326c-7.6709,4.3075-14.9899,9.2371-22.5376,13.7704
		c-5.4921,3.2986-11.4919,5.7507-16.5362,9.7346c24.9619,1.9357,45.5914,12.6964,64.5238,28.6197
		c20.2483,17.0301,35.376,37.5495,46.5384,61.1732c7.6777,16.2488,12.926,33.3084,15.041,51.2914
		c0.647,5.5015,1.538,10.8211-0.5323,16.1626c-0.2224,0.5739-0.3038,1.3467-0.114,1.9149
		c3.7225,11.1429-0.4336,21.5466-2.9631,32.1009c-0.2169,0.9052-1.3281,1.8244-0.4776,2.6864
		c0.7786,0.7892,1.7828,0.2673,2.685-0.3166c7.6446-4.9477,15.7334-9.1407,23.3534-14.167
		c11.6735-7.7,24.0817-14.2283,35.865-21.7996c3.6548-2.3484,7.9266-3.7382,11.4044-6.6942
		c1.7785-1.5117,4.4644-0.7603,6.6324,0.3959c-2.3987,3.2876-5.738,5.5721-9.1025,7.5844
		c-28.1805,16.8544-56.4522,33.5564-84.7018,50.2954C192.2073,530.0119,191.8577,530.0552,191.5416,530.1551z"/>
	<path fill="#FEE52E" d="M302.4074,12.3009c21.2675,20.7147,42.535,41.4294,63.8011,62.1456
		c-6.8189,4.1471-13.8454,7.9005-21.0938,11.2368c-20.4408-19.0284-40.889-38.049-61.313-57.0954
		c-2.3023-2.147-4.4684-4.4399-6.699-6.665C285.2993,18.0913,293.8135,15.0914,302.4074,12.3009z"/>
	<path fill="#FEE52E" d="M777.4586,704.9818c-26.0863-17.0983-52.1725-34.1965-78.2589-51.2949
		c-0.0333-0.3409-0.0872-0.7866,0.1323-0.9562c6.3843-4.9279,12.7888-9.8296,20.8285-11.8492
		c9.5626,5.0552,17.912,11.9276,26.8035,17.9823c14.8162,10.0891,29.4459,20.4516,44.202,30.6296
		c2.1041,1.4512,3.7887,2.7311,1.6559,5.3583C787.6968,698.2307,782.5776,701.6063,777.4586,704.9818z"/>
	<path fill="#FEE52E" d="M920.578,608.8718c-4.0939-4.2379-5.8565-9.8481-8.5184-14.889
		c-8.6614-16.4023-17.0021-32.9746-25.3832-49.5236c-0.8251-1.6293-2.6441-3.2361-1.1239-5.426
		c3.0907-1.9957,5.7019-4.7192,9.2255-6.0523c3.1115-1.2216,5.7181-3.2928,8.5079-5.0556l-0.0606,0.0475
		c2.9749-0.2213,3.3318,2.286,4.181,4.1437c9.9871,21.8477,19.934,43.7139,29.8916,65.575
		C931.7247,601.4182,926.1513,605.145,920.578,608.8718z"/>
	<path fill="#9B2C1B" d="M732.5253,427.924c-0.0084,6.4201-0.0167,12.8401-0.025,19.2602
		c-0.0873,3.9127,1.5764,7.8779-0.352,11.7354c-14.9413-13.3108-29.8825-26.6215-44.8238-39.9323
		c0.0752-0.498,0.175-1.0809,0.562-1.3448c8.4446-5.7588,16.7051-11.837,26.3923-15.4774
		c5.9791-3.4387,11.9581-6.8774,17.9368-10.3168C732.3187,403.8731,732.422,415.8986,732.5253,427.924z"/>
	<path fill="#FEE52E" d="M173.3237,252.3871c7.3043,5.1284,14.6086,10.2567,21.9139,15.3849
		c-6.9728-0.7293-13.8875-2.8078-20.9758-0.9168c-1.2392,1.1683-2.5649,1.3715-3.9994,0.3579
		c-6.9312,0.9003-13.1961,3.5793-19.122,7.1632c-3.2524-0.0083-6.0156-0.787-6.9645-4.4228
		C153.4697,263.3976,163.1252,257.4418,173.3237,252.3871z"/>
	<path fill="#A54330" d="M144.1759,269.9536c2.1176,1.7972,4.2689,3.5411,6.9671,4.4206c-2.5207,1.5052-5.0389,3.0084-7.5567,4.5109
		C143.8389,275.9113,142.8382,272.8553,144.1759,269.9536z"/>
	<path fill="#3E4347" d="M286.2954,471.9615c0.0029-1.2923-0.0715-2.5904,0.0269-3.8754c0.1425-1.8615-0.8227-4.2189,1.1513-5.3957
		c2.3267-1.3871,2.9945,1.8633,4.7811,2.286C290.7759,467.738,288.8752,470.1394,286.2954,471.9615z"/>
	<path fill="#F4835A" d="M903.2859,527.9253c-2.207,2.7437-4.9518,4.5822-8.5079,5.0555
		C897.3275,530.8137,899.9717,528.8058,903.2859,527.9253z"/>
	<path fill="#F05744" d="M714.2788,402.1652c-8.9849,5.6074-17.9698,11.2147-26.9545,16.8221
		c-15.4785,9.3067-30.9574,18.6131-46.4359,27.9202c-18.7302,11.2624-37.4585,22.5281-56.2003,33.7711
		c-0.4031,0.2419-0.9603,0.227-1.4456,0.3319c-2.4451,0.4075-4.5654-0.6614-6.7111-1.5284
		c-54.0077-21.8202-108.018-43.6338-162.0254-65.4547c-2.0365-0.8228-4.716-0.9914-5.3718-3.8449
		c5.0349-0.8427,9.0994-3.8434,13.5024-6.0861c6.7896-3.4584,13.575-6.9254,20.3322-10.4465c1.4132-0.7364,2.88-0.6485,4.359-0.726
		c14.7378,6.8311,30.1254,10.8964,46.3858,12.2976c19.229,1.657,38.1809,1.3066,56.5424-5.1758
		c19.2571-6.7986,34.1255-18.4364,40.4659-38.8065c4.4207-14.2021,1.7782-27.8342-3.4751-41.234
		c14.0452-8.118,28.6151-15.2328,43.0588-22.5932c3.7822-1.9273,8.0756-3.0597,11.0476-6.4111
		c19.2942,29.9135,38.5899,59.8253,57.8801,89.7404c3.7875,5.8738,7.5115,11.7891,11.3596,17.6227
		C711.5591,399.8284,712.1356,401.7937,714.2788,402.1652z"/>
	<path fill="#FEE52E" d="M409.1344,410.1826c16.9037,6.9317,33.7814,13.9276,50.7163,20.7822
		c40.2213,16.2801,80.4702,32.4919,120.7038,48.7415c0.9214,0.3721,1.7934,0.8663,2.6883,1.3039
		c-7.8383,4.9852-15.7131,9.9138-23.486,14.9984c-1.7447,1.1413-3.0994,0.505-4.6628-0.0614
		c-60.0157-21.7424-120.0401-43.461-180.0366-65.2564c-2.3044-0.8372-4.4595-2.2365-6.4902-3.652
		c-21.9796-15.3215-43.918-30.7023-65.8788-46.0507c-1.0813-0.7556-2.2668-1.3621-3.404-2.0382
		c-3.923-8.3895-6.5732-17.2974-10.715-25.615c-6.9324-13.922-15.5426-26.7531-24.6809-39.2697
		c2.4822,0.248,4.1399,2.0572,6.0398,3.326c44.5823,29.7733,89.1329,59.594,133.6981,89.393
		C405.4186,407.9825,407.2964,409.0527,409.1344,410.1826z"/>
	<path fill="#3E4347" d="M766.3937,477.0528c-2.9294-2.741-2.9162-6.5817-3.5305-10.0867
		c-1.0049-5.7338-1.3703-11.623,0.1481-17.2737c2.9208-10.8698,13.3586-16.7017,24.3523-14.2188
		c15.0002,3.3878,25.6312,12.7097,33.8937,25.0443c8.1124,12.1104,12.7465,25.2769,12.1675,40.2158
		c-0.5693,14.6879-9.5805,24.0903-24.3345,24.2687c-0.6646,0.008-1.3285,0.0634-1.9936,0.0973
		c-7.0397-5.231-13.3328-11.3142-19.731-17.2775c-0.0865-2.1563,1.8373-2.5763,3.1114-3.4749
		c5.3107-3.7457,10.8835-7.1545,16.5793-10.1979c8.7952-4.6995,7.9516-12.8112,4.3478-18.7383
		c-4.8613-7.9951-13.8256-15.233-25.5984-7.4917c-4.9777,3.2732-10.3655,6.0041-15.722,8.6955
		C768.9224,477.1986,767.7596,478.0637,766.3937,477.0528z"/>
	<path fill="#FDFDFD" d="M720.1605,640.8816c-6.9873,4.269-13.9746,8.538-20.9613,12.8062
		c-2.2244,1.1495-4.4494,2.2998-6.6746,3.4525c8.3206-20.9042,6.7657-42.0183,1.3658-63.2255
		c-0.5671-2.2272-1.7659-4.3308-1.4469-6.751c19.9183,10.9888,39.8362,21.9776,59.755,32.967
		c-8.1188,6.3329-17.3418,10.9437-25.8942,16.6006C724.2432,638.0947,722.2078,639.4971,720.1605,640.8816z"/>
	<path fill="#B1C0BF" d="M766.3937,477.0528c6.988-3.8038,14.0419-7.4927,20.9454-11.4443
		c6.6062-3.7814,12.8244-2.9549,18.555,1.4653c6.3994,4.9361,10.2731,11.2583,8.8124,19.7977
		c-0.5645,3.3006-2.377,5.5577-5.3563,7.3118c-7.4302,4.3745-14.6701,9.072-21.9854,13.6394
		c-9.6746-8.6098-19.3502-17.219-29.0256-25.8282C761.024,480.3474,763.7089,478.7001,766.3937,477.0528z"/>
	<path fill="#B1C0BF" d="M684.473,567.0805c-6.0231-10.1777-11.7963-20.5106-18.706-30.1374
		c10.6237-6.5084,25.3463,6.3779,25.6036,16.29C691.5273,559.2716,691.0394,564.5796,684.473,567.0805z"/>
	<path fill="#D9C4C1" d="M732.1483,458.9196c0.1171-3.9118,0.2343-7.8236,0.3517-11.7354c0.8293,4.5488,1.8845,9.066,1.9249,13.7255
		C733.3118,460.6526,732.7392,459.7757,732.1483,458.9196z"/>
	<path fill="#3E4347" d="M170.2624,267.2131c1.3331-0.1193,2.6663-0.2386,3.9994-0.3579c-0.2079,2.181-1.1257,4.0556-3.5525,3.5611
		C168.9356,270.0548,169.5495,268.4262,170.2624,267.2131z"/>
	<path fill="#3E4347" d="M164.4451,461.2581c0.2723,3.5391-0.3768,9.4726-2.4725,15.1487
		c-6.9474,18.8164-24.4893,22.8347-40.8942,15.3897c-10.7005-4.8561-18.7542-13.1497-25.5157-22.5222
		c-10.4591-14.4979-18.9571-30.0141-23.5122-47.5169c-2.0083-7.7168-2.6266-15.5246-1.3095-23.1962
		c2.8482-16.5894,18.0535-23.1463,33.4474-20.026c18.8151,3.8137,32.4037,15.8462,43.4467,30.6044
		C158.5171,423.6827,164.4861,440.2939,164.4451,461.2581z"/>
	<path fill="#3E4347" d="M574.3019,659.7521c0.4888,6.0134-0.5919,12.3157-3.5371,18.2844
		c-6.3902,12.9506-19.8985,16.0088-31.7828,10.7697c-11.5059-5.0724-19.647-14.2034-26.9731-23.8881
		c-10.0046-13.2253-17.6996-27.6413-20.1056-44.4558c-1.3851-9.6795-0.7132-18.849,6.649-25.8856
		c8.7328-8.3465,19.2221-8.0861,29.7838-3.9888C553.4062,600.3138,575.7111,632.5502,574.3019,659.7521z"/>
	<path fill="#42ACE1" d="M463.4072,235.1348c17.6206-6.2339,35.5015-7.5321,53.3782-1.6229
		c29.53,9.7611,47.6826,30.4221,56.099,60.0456c-0.92,1.4565-2.4232,1.6953-3.9311,1.7556
		c-11.8057,0.4721-23.5837,1.4024-35.3763,2.0884c-17.9611,1.0448-35.9028,2.2048-53.5505,6.0186
		c-3.7657,0.8138-7.406,1.9978-10.8256,3.7742c-8.2244,4.2723-9.4418,10.2189-3.4862,17.4051
		c3.5383,4.2695,7.6976,7.816,12.7045,10.3389c13.4421,6.7733,27.7947,10.1858,42.68,11.5652
		c15.9485,1.478,31.9081,1.7726,47.8628-0.0074c1.156-0.129,2.3348-0.2008,3.4005,0.454
		c-3.5715,21.3758-18.2826,36.3856-41.1569,39.6693c-32.817,4.711-63.7914-1.5226-91.4266-20.2121
		c-27.6443-18.6957-35.6354-46.2657-23.9893-79.6375c8.0031-22.9329,22.8521-39.9114,45.0459-50.2113
		C461.722,236.147,462.5512,235.6121,463.4072,235.1348z"/>
	<path fill="#3E4347" d="M572.3625,346.95c-2.5397,1.5396-5.4986,1.5394-8.2327,1.6622
		c-25.6731,1.1527-51.2626,1.124-75.9096-7.7592c-8.3573-3.0121-16.2199-6.8853-22.4128-13.5574
		c-8.7342-9.4101-7.0727-17.7187,4.7954-22.4381c11.2445-4.4714,23.1826-5.8923,35.1032-6.8151
		c22.3728-1.732,44.7795-3.0251,67.1753-4.4928c2.6379,4.1368,5.0139,8.3762,5.6935,13.3397
		C579.9037,320.7699,580.6978,334.568,572.3625,346.95z"/>
</g>
</svg>
