<?xml version="1.0" encoding="utf-8"?>
<!-- Generator: Adobe Illustrator 22.0.0, SVG Export Plug-In . SVG Version: 6.00 Build 0)  -->
<svg preserveAspectRatio="none" version="1.2" baseProfile="tiny" id="Capa_1" xmlns="http://www.w3.org/2000/svg" xmlns:xlink="http://www.w3.org/1999/xlink"
	 x="0px" y="0px" viewBox="0 0 1200 1200" xml:space="preserve">
<g>
	<path fill="#FEFEFE" d="M655.1033,41.8538c169.2002,0,338.4005,0.0385,507.6005-0.1582c5.9999-0.007,7.5714,0.885,7.5679,7.3298
		c-0.2069,368.723-0.2104,737.446,0.0155,1106.1691c0.0043,6.887-1.811,7.766-8.0505,7.7633
		c-373.2714-0.1669-746.5428-0.1669-1119.8142,0.0007c-6.2479,0.0028-8.0511-0.8888-8.0469-7.7672
		C34.6009,786.7716,34.6,418.3517,34.3875,49.932c-0.0041-7.0733,1.8588-8.2467,8.4838-8.2389
		c173.1418,0.2029,346.2838,0.1608,519.4258,0.1608c0.6107,0.9319,0.5067,1.7757-0.3066,2.5348
		c-7.5338,3.864-15.9286,3.5144-23.9673,4.502c-45.0874,5.539-88.7442,16.7833-131.0318,33.1208
		c-54.4265,21.0273-104.2454,50.1709-149.4714,87.0833c-54.6257,44.5841-99.645,97.3822-134.1765,158.8527
		c-31.2888,55.6982-52.7136,114.9355-63.2182,178.1891c-5.378,32.3839-8.6473,64.8121-8.5476,97.5748
		c0.1651,54.2838,8.3,107.4596,24.0137,159.3726c17.7987,58.8011,44.5203,113.2745,80.6135,163.1205
		c45.2318,62.4671,100.7361,113.6627,166.8236,153.442c62.9145,37.8695,130.8852,61.6772,203.3005,72.8043
		c33.8793,5.2059,68.0949,7.5133,102.3591,5.9879c63.4493-2.8247,125.0576-15.1938,184.2312-38.5245
		c58.3312-22.9987,111.2873-55.067,158.7631-96.0667c60.7491-52.4624,108.6126-114.8386,142.3256-187.6987
		c20.7014-44.7392,35.3027-91.4437,43.4232-140.2869c5.837-35.1094,9.1566-70.2882,8.3179-105.772
		c-1.2301-52.0446-9.2828-103.0936-24.7114-152.9002c-18.2821-59.0194-45.3884-113.6149-81.9152-163.4882
		c-42.588-58.1493-94.3917-106.421-155.3729-144.8403c-54.692-34.457-113.899-57.9067-176.8677-71.9327
		c-18.3265-4.0821-36.9009-7.0744-55.6066-9.0324c-5.426-0.568-10.8734-0.9844-15.8693-3.4986
		C654.5908,43.6346,654.4919,42.7856,655.1033,41.8538z"/>
	<path fill="#3E3E3E" d="M580.4943,41.8538c18.804,0,37.6078,0,56.4117,0c0.5384,1.2311,0.2357,2.1993-0.9036,2.9106
		c-18.1992,2.7685-36.4033,2.7652-54.612,0.0152C580.2527,44.0626,579.9556,43.0853,580.4943,41.8538z"/>
	<path fill="#C1C1C1" d="M580.4943,41.8538c-0.2619,0.4516-0.3941,0.9384-0.3965,1.4605c-5.8264,4.4353-11.764,4.088-17.7789,0.4131
		c-0.0073-0.6245-0.0146-1.249-0.0219-1.8736C568.3629,41.8538,574.4286,41.8538,580.4943,41.8538z"/>
	<path fill="#C1C1C1" d="M637.3089,43.3084c0.0103-0.5249-0.1241-1.0098-0.4029-1.4546c6.0658,0,12.1315,0,18.1973,0
		c-0.0072,0.6245-0.0144,1.2491-0.0217,1.8736C649.0676,47.4001,643.1317,47.7533,637.3089,43.3084z"/>
	<path fill="#030203" d="M637.3089,43.3084c5.9243,0.1397,11.8486,0.2794,17.7728,0.419
		c63.1953,5.7099,123.9719,20.813,181.9055,46.9109c70.7999,31.8939,132.4423,76.3691,184.8262,133.7918
		c64.6133,70.8284,108.009,152.8809,130.7871,245.8625c12.4558,50.8457,17.7238,102.5995,15.1129,154.8318
		c-6.5262,130.5651-51.7839,246.2275-138.1348,344.549c-88.5359,100.8092-199.6913,162.574-332.3481,183.9426
		c-116.3444,18.7411-228.1804,2.3921-333.9559-49.5665c-114.7338-56.3591-200.4654-142.512-257.2286-257.2247
		C74.5355,783.145,55.7736,715.7506,51.0694,644.9916c-10.6033-159.4909,36.486-299.9124,143.4959-419.0981
		C275.6304,135.6047,376.6357,79.0549,495.1055,53.54c22.1631-4.7733,44.6582-7.5712,67.2134-9.8126
		c5.9263-0.1377,11.8527-0.2753,17.7789-0.413C599.1682,43.3123,618.2386,43.3104,637.3089,43.3084z"/>
	<path fill="#F6931F" d="M1155.7295,601.0191c0.1263,302.6979-244.4806,547.461-547.0774,547.4267
		c-302.6223-0.0343-547.087-244.7396-546.9822-547.5205C61.7746,298.4815,306.6026,54.3028,609.6508,54.3977
		C911.0779,54.492,1155.6038,299.2608,1155.7295,601.0191z"/>
	<path d="M74.1946,600.9962c0.2742-295.642,239.5465-534.5369,534.9273-534.0836c295.8538,0.454,534.3099,239.2814,534.0842,534.916
		c-0.226,295.9952-239.7376,534.7336-535.8279,534.0981C312.2146,1135.2928,73.9207,896.2183,74.1946,600.9962z"/>
	<path fill="#F6921F" d="M957.3544,607.6791c-4.6732,197.6521-169.8484,350.8661-364.1617,341.661
		c-193.2638-9.1555-342.7062-173.4254-332.5604-363.6545c10.3125-193.3533,173.7399-342.2305,364.0954-332.4366
		C812.4025,262.905,959.606,417.7582,957.3544,607.6791z"/>
	<path fill="#E0E0E0" d="M176.8717,670.0491c1.8318,6.0756-2.0847,6.7005-4.735,6.3621c-5.981-0.7637-3.6211-6.4038-4.7442-9.9566
		c-1.2512-3.9581,0.9193-5.6891,4.6584-5.5933C180.2019,661.0701,173.9927,668.5618,176.8717,670.0491z"/>
	<path fill="#FEFEFE" d="M609.0462,1047.4525c-3.0074-0.7252-7.6648,1.7882-7.8042-4.4304
		c-0.1428-6.3755,4.5644-4.3789,7.5831-4.2699c2.9205,0.1056,7.6743-2.4203,7.7848,4.0431
		C616.7167,1049.0411,612.2164,1046.9147,609.0462,1047.4525z"/>
	<path fill="#D4D4D4" d="M1051.6582,549.9293c1.3586,5.3603-1.1151,6.7264-4.6569,6.3807
		c-7.4382-0.7261-3.3726-7.0931-4.8256-10.7319c-1.5018-3.761,1.5062-4.8967,4.4597-4.8163
		C1054.28,540.9695,1050.2184,547.5494,1051.6582,549.9293z"/>
	<path fill="#E9E9E9" d="M471.0055,1017.8401c-1.8766,3.1109-1.2882,7.7666-5.1656,6.0279
		c-3.8357-1.72-10.3676-0.0555-10.9067-6.5801c-0.1621-1.9622,0.4506-6.1827,4.4264-4.9136
		C463.4029,1013.665,468.2694,1014.0743,471.0055,1017.8401z"/>
	<path fill="#EDEDED" d="M937.0361,904.2918c-3.2803,2.9476-6.3651,6.7421-10.3418,8.8669
		c-2.0281,1.0836-5.7346-2.7582-5.3579-4.6885c0.9332-4.7831,5.1182-8.0641,9.1602-10.1949
		C932.3389,897.304,934.6765,900.8721,937.0361,904.2918z"/>
	<path fill="#EAEAEA" d="M998.8965,800.7393c2.6686,2.2285,7.3121,2.2205,5.6137,5.7504
		c-1.8621,3.8698-1.7728,10.1882-7.9984,10.2853c-1.8727,0.0291-6.1584-1.46-4.3677-5.2426
		C993.9258,807.7695,995.1297,803.2671,998.8965,800.7393z"/>
	<path fill="#DCDCDC" d="M1040.0009,705.7709c-2.9476-1.3243-7.5515-0.7921-5.519-5.4767
		c1.5618-3.5996-1.1603-9.8325,5.4595-10.4411c2.9814-0.2742,6.4343,0.6353,4.9268,5.1197
		C1043.6097,698.7167,1045.2289,704.0305,1040.0009,705.7709z"/>
	<path fill="#EBEBEB" d="M915.3448,925.1454c-3.5047,2.9521-5.9068,7.6391-10.6226,8.6271
		c-2.1458,0.4496-5.7105-3.2494-4.9182-5.1335c1.7934-4.265,5.486-7.9618,10.0516-9.1488
		C912.0266,918.9257,914.0944,922.1548,915.3448,925.1454z"/>
	<path fill="#F0F0F0" d="M1049.4618,667.9799c-1.2708,1.762,2.1177,7.8207-4.6421,7.8736
		c-3.5005,0.0273-6.0504-1.6247-4.3274-5.5627c1.4762-3.374-2.5137-9.9781,5.5776-9.6603
		C1050.5664,660.8071,1050.7073,663.3762,1049.4618,667.9799z"/>
	<path fill="#ECECEC" d="M334.8374,953.5643c-3.3633-3.4849-8.8701-4.841-9.8011-9.8752c-0.3059-1.6537,3.0374-5.9664,5.2497-4.8215
		c3.9213,2.0294,8.8479,4.3,9.7033,9.2836C340.2972,949.9454,337.8541,952.7552,334.8374,953.5643z"/>
	<path fill="#EDEDED" d="M416.0508,994.8779c-1.9109,3.0855-2.201,7.3295-5.6442,5.8868
		c-3.8515-1.6137-9.2646-2.1675-10.5042-7.0437c-0.4319-1.699,1.2581-6.235,4.4654-5.4417
		C408.6819,989.3466,412.9962,991.4319,416.0508,994.8779z"/>
	<path fill="#EBEBEB" d="M276.6346,885.4831c-1.7257,3.201-4.6197,6.514-6.1772,5.5539c-3.9821-2.4549-7.7139-6.1362-8.5747-11.0557
		c-0.199-1.1372,3.7751-4.5008,5.0762-4.1384C271.8896,877.2166,273.2721,882.4931,276.6346,885.4831z"/>
	<path fill="#EBEBEB" d="M1033.4458,463.843c0.3698,5.0762-3.5649,5.5252-5.4375,5.2127
		c-5.7363-0.9569-4.6251-6.7936-6.0712-10.6612c-1.6127-4.314,3.0103-4.7185,4.788-4.5751
		C1033.3687,454.3556,1030.3097,461.5867,1033.4458,463.843z"/>
	<path fill="#E6E6E6" d="M499.0598,1026.5605c-1.0566,3.8151-0.8723,7.5406-5.1071,5.8444
		c-3.7471-1.5009-9.738,0.3923-10.5589-5.6678c-0.2579-1.9041,0.0248-6.5149,4.1794-5.2927
		C491.632,1022.6385,497.1125,1022.1125,499.0598,1026.5605z"/>
	<path fill="#DDDDDD" d="M724.8697,1032.1925c-5.355,1.4519-5.8146-1.9315-5.7883-4.3275
		c0.0815-7.4102,7.0018-4.6423,10.7449-6.4054c3.9493-1.86,4.5779,2.5746,4.5861,4.6836
		C734.442,1033.777,726.7305,1029.302,724.8697,1032.1925z"/>
	<path fill="#E8E8E8" d="M521.225,1038.5502c-1.7225-2.3544-9.1771,2.5659-8.7737-5.2666c0.1341-2.604,0.9451-6.3634,4.6929-4.3727
		c3.5479,1.8846,10.9219-2.0806,10.4385,6.3157C527.3854,1038.6533,525.793,1040.2622,521.225,1038.5502z"/>
	<path fill="#E5E5E5" d="M695.8543,1038.8813c-4.814,1.2078-5.8844-1.6104-5.7609-4.343c0.3423-7.5822,7.2679-4.1631,11.0378-5.809
		c3.8146-1.6654,4.4959,2.8038,4.3163,4.9779C704.8875,1040.4814,698.2365,1036.7253,695.8543,1038.8813z"/>
	<path fill="#EAEAEA" d="M417.054,208.7269c-3.109-1.2843-4.7873-4.3053-4.1601-6.3751c1.4984-4.9455,7.0469-5.1951,11.0128-6.5837
		c3.1629-1.1074,4.7115,3.6071,4.2621,5.3301C426.7701,206.4611,420.5827,205.7605,417.054,208.7269z"/>
	<path fill="#E4E4E4" d="M665.7628,1043.903c-4.8218,0.8016-5.2982-2.0459-5.0634-4.873c0.6045-7.2797,6.9064-3.731,10.5233-5.0317
		c4.5233-1.6271,5.2297,2.6136,4.7794,5.311C674.8985,1045.9215,668.3901,1041.5717,665.7628,1043.903z"/>
	<path fill="#E9E9E9" d="M318.8199,274.1029c-3.0289-1.1712-6.2087-3.7806-5.4883-5.522c1.7827-4.3089,5.7375-7.7201,10.1389-9.1444
		c2.4393-0.7894,5.6544,3.5137,5.0806,5.0971C326.9327,268.9995,322.3552,271.2496,318.8199,274.1029z"/>
	<path fill="#ECECEC" d="M881.0571,249.0141c-2.256,2.4184-3.0936,6.6945-5.8558,5.4208c-4.0089-1.8486-9.0654-3.8521-9.9557-8.9068
		c-0.2956-1.6783,2.0339-6.0493,4.9875-4.8861C874.4067,242.2857,878.175,245.2741,881.0571,249.0141z"/>
	<path fill="#FDFDFD" d="M163.3842,579.2943c1.1138-2.5438-2.2193-7.4889,4.3422-7.5563c6.1167-0.0629,4.9512,4.1157,4.5009,7.3954
		c-0.4085,2.975,1.8946,7.7792-4.3827,7.8844C161.5711,587.123,163.5817,582.7888,163.3842,579.2943z"/>
	<path fill="#EBEBEB" d="M296.6657,294.4584c-2.4744-1.4667-5.9741-3.7438-5.0522-5.7001c1.9471-4.1317,5.3704-8.1287,9.9365-9.375
		c1.8619-0.5082,5.836,4.0351,5.0164,5.2423C304.0058,288.3976,300.0779,291.2415,296.6657,294.4584z"/>
	<path fill="#ECECEC" d="M919.7062,294.3829c-3.0599-3.2037-6.9219-6.1563-9.1319-10.0471
		c-1.0189-1.7937,2.7578-5.7112,4.8242-5.2577c4.718,1.0357,7.881,5.2956,10.0823,9.2731
		C926.3994,290.0111,922.8193,292.486,919.7062,294.3829z"/>
	<path fill="#E0E0E0" d="M1047.5306,520.9297c1.3785,5.4777-1.937,5.6042-4.4915,5.658c-7.6903,0.1616-3.8489-6.5991-5.4493-10.0012
		c-1.955-4.1554,1.8546-5.412,4.9022-5.1772C1049.7163,511.9656,1044.3765,519.3168,1047.5306,520.9297z"/>
	<path fill="#ECECEC" d="M956.4252,880.4524c-3.4742,4.3403-5.4432,9.1506-10.0807,10.5192
		c-1.7291,0.5103-5.9419-2.7198-5.025-4.9727c1.6952-4.1649,4.3026-8.7427,9.0814-9.9944
		C951.8679,875.6204,954.2603,878.7689,956.4252,880.4524z"/>
	<path fill="#ECECEC" d="M296.5535,907.34c-1.1486,3.0154-3.5032,6.1135-5.502,5.6279c-4.7279-1.1487-7.5767-5.657-9.817-9.622
		c-0.8176-1.4468,3.2958-5.7178,5.0954-5.2115C290.9262,899.4277,293.2563,904.1253,296.5535,907.34z"/>
	<path fill="#EDEDED" d="M249.8914,851.6424c3.174,3.5218,6.6733,6.9802,7.612,11.7198c0.2134,1.0775-4.1263,4.563-5.1519,4.1199
		c-4.5324-1.9579-7.3868-6.3052-8.548-10.8203C243.1477,854.1118,247.0861,853.0124,249.8914,851.6424z"/>
	<path fill="#E1E1E1" d="M172.7391,695.9186c-1.1421-4.9324,2.0332-5.8273,4.564-5.6614c7.5108,0.4924,4.2353,7.4145,5.7953,11.2959
		c1.5606,3.8828-3.0312,4.4138-5.1472,4.1349C171.5893,704.8497,174.4728,698.6051,172.7391,695.9186z"/>
	<path fill="#E3E3E3" d="M652.4662,157.932c1.7645,1.5996,8.423-3.2354,8.0618,4.6403c-0.1821,3.968-2.1345,5.826-5.7416,4.1901
		c-3.3097-1.501-10.1421,2.8597-9.5742-5.5275C645.5142,156.7759,648.001,156.4936,652.4662,157.932z"/>
	<path fill="#EEEEEE" d="M534.579,161.9746c5.1672-2.1797,6.775-0.2326,6.9598,3.4484c0.3526,7.0204-5.6257,4.3269-8.9208,5.5487
		c-3.1984,1.1859-5.955,0.5898-6.3038-3.6375C525.6503,159.2891,532.7725,163.6208,534.579,161.9746z"/>
	<path fill="#EFEFEF" d="M226.4751,389.3361c-3.3656-1.454-7.4754-2.5674-6.9195-4.7641c1.112-4.3943,2.9583-9.4219,7.4213-11.4796
		c1.6908-0.7795,6.401,1.8876,5.8049,4.1642C231.6538,381.5645,228.6571,385.3832,226.4751,389.3361z"/>
	<path fill="#EDEDED" d="M195.2549,459.7845c-2.8898,2.7488,0.5521,10.0993-6.8012,10.1735
		c-1.9913,0.0201-5.8617-0.2962-4.6616-3.7708c1.4001-4.0534,0.2982-10.1155,6.2534-11.2448
		C191.9552,454.5801,195.7316,455.2103,195.2549,459.7845z"/>
	<path fill="#ECECEC" d="M456.0495,190.1476c-2.7348,4.4117-7.8346,4.9768-12.0758,5.9125
		c-2.9371,0.648-4.4142-4.0287-3.8044-5.7909c1.673-4.8346,7.1308-4.8554,11.1593-6.0168
		C455.0679,183.1743,454.5193,187.6209,456.0495,190.1476z"/>
	<path fill="#E8E8E8" d="M765.6343,183.4834c3.3258,2.7871,9.4502,1.3335,10.59,6.622c0.3524,1.635-0.3275,7.3112-4.9079,5.3677
		c-3.7258-1.5809-9.8008-0.644-10.4167-6.568C760.6794,186.7869,761.7301,183.4484,765.6343,183.4834z"/>
	<path fill="#EBEBEB" d="M804.5264,201.8208c-2.0539,2.5156-1.9865,7.2942-5.3137,5.8036
		c-3.909-1.7512-10.3221-1.1694-10.7879-7.4739c-0.1301-1.7605,1.0473-5.8867,3.947-4.985
		C796.6646,196.5003,801.466,197.8083,804.5264,201.8208z"/>
	<path fill="#ECECEC" d="M377.1688,229.3021c-3.2772,4.5733-7.5668,7.0742-11.9159,8.384
		c-2.2344,0.6729-5.1009-4.1525-4.4622-5.6623c1.8105-4.2803,6.4607-6.3891,10.607-7.812
		C374.9603,222.9892,374.3978,227.9523,377.1688,229.3021z"/>
	<path fill="#E9E9E9" d="M819.8135,208.3659c3.2651,2.8952,9.5278,2.5405,10.3976,8.1547c0.2714,1.7517-1.4761,6.4494-4.8161,5.0392
		c-3.881-1.6385-9.2911-2.4935-10.4272-7.4774C814.5182,212.1104,815.9219,208.7034,819.8135,208.3659z"/>
	<path fill="#EDEDED" d="M956.6001,322.3304c2.7075,3.6574,6.1679,7.0422,7.8899,11.1549c0.9907,2.3661-3.2525,5.2133-5.037,4.7651
		c-4.8202-1.2108-7.2178-5.998-8.9567-10.102C949.5777,325.9802,953.5963,324.3362,956.6001,322.3304z"/>
	<path fill="#E9E9E9" d="M354.0267,956.5446c3.131,3.2037,8.9598,3.7957,9.9685,9.11c0.3679,1.9382-2.2459,5.7294-4.1303,5.1383
		c-4.4377-1.392-9.2361-3.7126-11.0214-8.3027C348.0678,960.4961,350.8099,957.7549,354.0267,956.5446z"/>
	<path fill="#ECECEC" d="M869.5132,962.7488c-3.9701,3.5376-7.4821,7.152-12.1035,7.9775
		c-2.1807,0.3895-5.0196-3.6892-3.9964-5.9216c1.8794-4.1,6.241-6.6545,10.4354-7.7031
		C866.5572,956.4244,867.2527,960.6092,869.5132,962.7488z"/>
	<path fill="#EEEEEE" d="M390.011,980.0115c-1.7618,3.2704-2.5095,7.5968-5.1549,6.6836c-4.2138-1.4545-9.5666-2.9039-10.985-8.0151
		c-0.4671-1.6833,2.0785-5.8637,3.8897-5.2781C382.0991,974.8045,385.9522,977.7081,390.011,980.0115z"/>
	<path fill="#EEEEEE" d="M266.9824,329.172c-3.6649,2.8633-4.3659,8.9611-9.8385,9.5006c-1.8873,0.1861-5.6818-2.6423-4.8425-4.456
		c1.936-4.1838,4.213-9.0992,9.1299-10.3682C263.1282,323.4104,266.1321,325.9591,266.9824,329.172z"/>
	<path fill="#EAEAEA" d="M312.4033,934.6674c-3.7766-3.594-8.58-5.7428-9.8446-10.5604c-0.4933-1.8793,2.7949-5.1256,4.5927-4.7231
		c4.799,1.0743,8.4434,4.8784,10.26,9.1768C318.3733,930.8364,314.3344,932.3668,312.4033,934.6674z"/>
	<path fill="#ECECEC" d="M240.9489,363.837c-2.5753-1.9346-6.8712-2.6194-5.7256-5.4535c1.6523-4.0876,3.4541-9.2186,8.4518-10.3512
		c1.6688-0.3782,6.1241,2.0609,5.071,4.7091C247.1189,356.8334,244.739,361.0518,240.9489,363.837z"/>
	<path fill="#EBEBEB" d="M904.3022,267.6149c-1.8529,2.9333-3.7161,6.4945-6.0654,5.636c-4.1224-1.5065-8.0129-4.7227-9.8337-8.7658
		c-0.777-1.7253,2.337-5.9212,4.8289-5.3981C898.0222,260.0927,900.7056,264.6409,904.3022,267.6149z"/>
	<path fill="#EEEEEE" d="M845.9541,223.515c2.9566,3.2073,9.1124,3.4469,9.6836,8.9765c0.1587,1.5367-1.7911,6.3781-5.1298,4.5125
		c-3.6483-2.0385-9.1212-2.9827-9.8125-8.0773C840.4409,227.0509,842.0685,223.6714,845.9541,223.515z"/>
	<path fill="#E9E9E9" d="M199.1057,442.5634c-2.0542-1.7915-6.8386-0.9507-5.0586-5.0169
		c1.6908-3.8625,0.5073-10.3351,7.0673-10.5734c2.1758-0.079,6.2262,1.0972,4.5169,4.9576
		C203.9891,435.6393,204.2451,440.8882,199.1057,442.5634z"/>
	<path fill="#EDEDED" d="M279.9802,300.2706c2.9787,1.5277,6.2957,3.325,5.5605,5.8305c-1.2549,4.2769-4.7927,7.882-8.7342,9.7495
		c-2.025,0.9594-5.8485-2.4922-5.4139-4.7247C272.3256,306.3335,276.7961,303.6343,279.9802,300.2706z"/>
	<path fill="#E8E8E8" d="M578.9694,1046.4575c-2.5636-1.0383-7.9706,2.0978-7.6345-4.9689c0.2552-5.3655,3.7244-4.697,6.8696-4.0415
		c3.1359,0.6533,8.4087-2.5558,8.5616,4.4034C586.8967,1047.7845,582.9246,1046.597,578.9694,1046.4575z"/>
	<path fill="#EDEDED" d="M818.661,993.6561c-3.4011,4.214-7.9265,5.8275-12.1537,7.2145c-2.9327,0.9622-4.1818-2.8295-4.0986-4.6711
		c0.2812-6.228,6.5113-6.1119,10.39-7.8494C816.1894,986.8311,815.915,991.7809,818.661,993.6561z"/>
	<path fill="#E8E8E8" d="M1017.76,779.6511c-2.6384,3.22-1.4532,9.6558-7.57,10.3492c-1.7952,0.2035-5.8569-1.0358-4.8879-3.8269
		c1.4456-4.1635,1.5549-9.9412,6.9186-11.3508C1014.119,774.3238,1017.7386,775.4511,1017.76,779.6511z"/>
	<path fill="#E7E7E7" d="M206.2015,790.8577c-3.9641-3.0953-5.5386-7.6574-6.3218-12.1733c-0.5113-2.9476,3.427-3.92,5.1586-3.5783
		c5.6886,1.1225,5.7142,7.0204,7.1062,11.0804C213.1596,789.1467,208.7802,789.4332,206.2015,790.8577z"/>
	<path fill="#EBEBEB" d="M218.2199,800.4835c4.2527,3.5422,6.0752,8.0207,7.328,12.3136c0.7203,2.4684-3.2142,4.3904-4.9747,4.1051
		c-5.5987-0.9072-6.219-6.6036-7.7354-10.6888C211.4559,802.4906,216.512,803.3557,218.2199,800.4835z"/>
	<path fill="#F1F1F1" d="M233.1702,826.848c3.6865,2.9239,6.0995,7.0196,7.4715,11.3236c0.8251,2.5884-3.0733,4.5402-4.6557,4.3531
		c-5.5134-0.6519-6.7585-6.1717-8.508-10.1573C226.1642,829.3743,230.4503,828.7241,233.1702,826.848z"/>
	<path fill="#F0F0F0" d="M990.3158,832.4096c-2.9414,3.285-3.231,9.1827-8.5468,10.2103c-1.7897,0.3459-6.0558-1.7005-4.8629-4.8599
		c1.4846-3.9314,3.0133-8.827,7.5375-10.1985C986.3904,826.9715,989.476,828.8977,990.3158,832.4096z"/>
	<path fill="#EDEDED" d="M965.4697,868.2663c-2.6237-1.9161-6.5983-3.074-5.6282-5.5859c1.6087-4.1656,3.7477-9.0514,8.6061-10.3182
		c1.6082-0.4194,5.9244,1.8153,5.0699,4.778C972.2346,861.5883,968.7714,865.0015,965.4697,868.2663z"/>
	<path fill="#E8E8E8" d="M507.147,167.0464c5.3389-1.4919,5.1853,2.5495,5.0989,4.6224c-0.2819,6.7636-6.6463,4.2084-10.2279,5.7415
		c-4.7029,2.013-5.265-2.8714-4.9088-5.0984C498.0781,166.2541,504.3578,168.9483,507.147,167.0464z"/>
	<path fill="#E1E1E1" d="M479.2293,174.2382c4.3712,0.2135,4.9041,4.0202,4.4616,5.8607c-1.3183,5.484-7.1117,4.4168-11.0356,5.741
		c-4.0806,1.3771-4.5728-3.367-4.3207-5.142C469.2561,174.2071,476.1423,177.0399,479.2293,174.2382z"/>
	<path fill="#E3E3E3" d="M748.3524,180.3147c-1.3788,2.597-1.192,7.0661-5.0293,5.1087
		c-3.6538-1.8637-10.6431,0.6947-10.5274-6.6976c0.0439-2.8039,1.4363-5.8197,5.0807-4.266
		C741.5174,176.0121,747.1008,174.7773,748.3524,180.3147z"/>
	<path fill="#F0F0F0" d="M402.3133,215.3219c-3.3968,3.2356-7.4893,5.9624-12.0222,6.6159
		c-2.3759,0.3425-4.9105-4.3426-4.0025-6.0326c2.1636-4.0269,6.9619-5.8354,11.1657-6.8445
		C400.2727,208.3841,401.0311,212.3779,402.3133,215.3219z"/>
	<path fill="#EEEEEE" d="M352.3539,246.6998c-3.2033,3.4704-6.7416,6.869-11.2521,8.2029c-1.8739,0.5542-4.7097-2.9977-4.385-4.9008
		c0.9008-5.2804,6.1549-7.1752,10.2032-9.063C349.186,239.8821,350.7156,244.0523,352.3539,246.6998z"/>
	<path fill="#F0F0F0" d="M974.0083,346.646c3.7288,3.0913,6.5152,7.1379,7.8259,11.4425c0.8085,2.6549-4.0206,5.0981-5.5723,4.5018
		c-4.3143-1.6579-6.4496-6.2844-7.8828-10.348C967.3032,349.1916,971.5188,348.6234,974.0083,346.646z"/>
	<path fill="#EFEFEF" d="M893.1053,944.3905c-3.6606,3.8525-6.9933,7.6443-11.591,8.7615
		c-1.7889,0.4347-5.3779-3.8576-4.3826-5.8323c1.99-3.948,6.0228-7.0397,10.2189-8.3355
		C889.6333,938.2793,891.1185,942.1337,893.1053,944.3905z"/>
	<path fill="#F0F0F0" d="M990.0066,372.0363c4.1293,2.4731,5.9595,7.0565,7.2837,11.24c0.9627,3.0421-3.512,4.8752-5.3821,4.4517
		c-4.8367-1.0953-5.7608-6.4342-7.504-10.1858C982.997,374.5138,987.1817,373.7199,990.0066,372.0363z"/>
	<path fill="#EDEDED" d="M218.7889,404.2761c-3.1331,3.0441-2.0295,9.5701-7.8485,10.5085
		c-1.5659,0.2525-5.8235-0.8604-5.0911-3.737c1.1185-4.3932,2.1355-9.7193,6.9873-11.5549
		C214.3941,398.9036,218.0971,400.5168,218.7889,404.2761z"/>
	<path fill="#EAEAE9" d="M1005.3562,414.7744c-4.1979-2.9327-5.488-7.7173-6.6981-12.0494
		c-0.7426-2.6582,3.4303-4.3018,5.0078-3.949c5.434,1.2152,6.1321,6.8484,7.5353,11.0088
		C1012.3757,413.2672,1007.5287,412.7515,1005.3562,414.7744z"/>
	<path fill="#EEEEEE" d="M844.2139,979.5331c-3.2908,3.3801-7.3562,5.9873-11.7816,7.2021c-2.384,0.6544-4.4269-3.3907-4.142-5.0234
		c0.9546-5.4713,6.558-6.5436,10.6558-8.1577C841.6632,972.4839,842.4537,976.752,844.2139,979.5331z"/>
	<path fill="#E8E8E8" d="M1023.3121,436.5791c-0.1467,4.3534-4.2023,5.1056-5.7896,4.5607
		c-5.1463-1.7668-5.4388-7.3187-6.3702-11.688c-0.6073-2.8494,3.4724-3.8806,5.1784-3.5414
		C1022.1326,427.0643,1020.9039,433.2813,1023.3121,436.5791z"/>
	<path fill="#E9E9E9" d="M179.3265,519.0027c-2.5788,1.8428,2.5826,9.3617-5.6008,8.8732
		c-4.1752-0.2493-5.4655-2.6312-3.9041-5.9108c1.5196-3.1918-1.7712-9.4433,5.338-9.2669
		C178.5657,512.7827,181.1252,513.958,179.3265,519.0027z"/>
	<path fill="#E7E7E7" d="M442.9036,1007.7357c-1.6592,2.5179-1.3615,7.018-4.9825,5.5703
		c-3.9829-1.5924-9.9358-1.2728-11.0241-6.8572c-0.322-1.6526,0.9506-6.3598,4.4234-5.2136
		C435.4039,1002.5829,440.5891,1003.0223,442.9036,1007.7357z"/>
	<path fill="#E7E7E7" d="M780.4718,1013.4343c-4.5659,0.4086-5.3488-3.3007-5.1085-5.2765
		c0.6848-5.6302,6.5558-5.1749,10.2988-6.8805c3.8568-1.7573,4.9094,2.7826,4.8569,4.6888
		C790.3366,1012.6004,782.9428,1010.074,780.4718,1013.4343z"/>
	<path fill="#DDDDDD" d="M1041.3934,492.4434c0.9579,4.9989-2.7406,5.4146-4.9493,5.1691
		c-6.8754-0.764-4.5797-7.3741-5.9506-11.3427c-1.3297-3.8495,3.3596-4.3083,5.4086-3.9471
		C1041.8945,483.3792,1039.4648,489.5535,1041.3934,492.4434z"/>
	<path fill="#E7E7E7" d="M763.3365,1017.8129c-2.2189,5.0455-7.6863,4.6752-11.7783,6.0538
		c-3.2532,1.0959-3.8936-2.7416-3.8478-4.72c0.1621-7.0162,6.9167-5.1213,10.7139-6.8165
		C762.2487,1010.623,761.7406,1015.3029,763.3365,1017.8129z"/>
	<path fill="#F7F7F7" d="M683.0696,170.4835c-1.7806-1.9835-8.5151,2.3743-8.2173-5.1554c0.1604-4.0562,2.001-5.6211,5.7281-4.0101
		c3.2856,1.4202,9.3221-1.6545,9.2933,5.4132C689.8571,170.8024,687.7726,172.052,683.0696,170.4835z"/>
	<path fill="#FAFAFA" d="M1045.7703,608.1036c0.6091-3.2924-1.7021-8.0065,4.7405-7.6171c6.373,0.385,3.9381,5.0997,3.8784,8.1049
		c-0.0599,3.0145,2.1522,7.9474-4.2,7.9314C1043.0239,616.5047,1046.7385,611.0657,1045.7703,608.1036z"/>
	<path fill="#EBEBEB" d="M173.2101,639.16c0.4412,3.9783,1.1051,7.4742-4.1413,7.5397c-6.8158,0.0851-4.107-5.3656-4.8371-8.5421
		c-0.7207-3.1357-1.3394-6.697,4.1592-6.7965C175.5344,631.2319,171.9013,636.8629,173.2101,639.16z"/>
	<path fill="#EEEEEE" d="M185.1896,735.1115c-4.9352-2.1186-3.7785-7.4389-5.2916-11.1714
		c-1.6579-4.0898,2.4653-4.8057,4.5677-4.6752c6.9249,0.4291,4.6916,7.1625,6.3241,11.0052
		C192.4467,734.1699,187.5564,733.3057,185.1896,735.1115z"/>
	<path fill="#F0F0F0" d="M1038.0836,723.2515c-3.0195,2.9141,0.4855,10.0361-6.3468,10.707
		c-2.0291,0.1992-6.5417-0.255-4.9784-4.298c1.4568-3.7677-0.1118-9.6905,5.6659-10.7825
		C1034.4933,718.4868,1038.0426,718.878,1038.0836,723.2515z"/>
	<path fill="#ECECEC" d="M195.1097,746.8417c3.6229,2.7842,4.1098,7.3853,5.3051,11.3184c1.1855,3.9006-2.973,4.8629-4.9958,4.5156
		c-5.9807-1.0269-5.3411-7.05-6.4736-11.1736C187.9123,747.7399,192.3047,748.3481,195.1097,746.8417z"/>
	<path fill="#EBEBEB" d="M638.42,1046.5155c-3.1851-0.2628-7.0545,1.7601-7.3353-4.0177c-0.3437-7.0714,4.7778-4.6533,8.1068-5.0493
		c3.0088-0.358,6.7689-1.9153,7.1,3.8081C646.701,1048.334,641.3844,1045.5343,638.42,1046.5155z"/>
	<path fill="#E9E9E9" d="M1028.9178,751.4532c-2.5654,3.3428-0.7223,9.8301-6.7729,10.9896
		c-1.7488,0.3351-5.7975-0.5873-5.1473-3.5662c0.9457-4.3324,0.9061-9.934,6.0266-11.7932
		C1024.5461,746.5308,1028.677,747.2119,1028.9178,751.4532z"/>
	<path fill="#E8E8E8" d="M1044.9023,578.3367c0.0214-3.5225-1.5774-7.4495,4.425-7.6939c6.384-0.2599,4.5475,4.3212,4.571,7.3142
		c0.0231,2.9253,2.7784,7.5209-3.5779,7.9929C1043.786,586.4351,1045.4159,581.6385,1044.9023,578.3367z"/>
	<path fill="#EAEAEA" d="M180.855,483.0273c2.561,1.4881,7.2516,0.6877,5.573,4.7131c-1.5838,3.7981,1.4141,10.7069-6.1029,10.9551
		c-2.6134,0.0863-5.9881-0.641-4.491-4.739C177.199,490.2202,175.8487,484.9617,180.855,483.0273z"/>
	<path fill="#F0F0F0" d="M174.4996,549.0997c-1.2508,2.0347,2.4186,8.0499-4.789,8.1937c-4.3831,0.0873-5.1448-2.4799-4.1384-5.8052
		c1.0254-3.388-2.0221-9.1783,5.0459-9.3144C174.7782,542.0936,175.7835,544.3378,174.4996,549.0997z"/>
	<path fill="#EBEBEB" d="M1044.1036,638.9564c1.2004-2.6812-2.089-8.2116,5.0453-7.9447c4.5695,0.171,5.0389,2.7742,4.1387,5.9526
		c-0.9576,3.3809,2.1996,9.1835-5.0823,9.2648C1042.5834,646.2917,1044.0731,642.4294,1044.1036,638.9564z"/>
	<path fill="#EFEFEF" d="M550.6745,1043.5145c-1.9089-2.4629-9.3682,3.0286-8.8311-5.3815c0.2678-4.1927,2.7447-5.384,5.9351-3.9102
		c3.1543,1.457,9.3727-2.2338,9.2331,5.1522C556.9393,1043.2003,555.4082,1044.9734,550.6745,1043.5145z"/>
	<path fill="#FDFDFD" d="M563.5528,158.022c4.7213-1.001,7.9404-1.0273,7.5658,4.13c-0.5111,7.035-6.4427,3.2908-9.7381,4.6518
		c-3.9065,1.6134-5.4125-1.065-5.4943-4.65C555.7145,154.6242,562.378,160.5596,563.5528,158.022z"/>
	<path fill="#F4F4F4" d="M946.4225,310.433c-2.3529,2.5174-4.5725,6.3238-6.5803,4.8222c-3.5665-2.6672-8.2341-5.5933-8.1464-10.878
		c0.0243-1.4638,2.7471-5.029,5.171-3.8741C941.1508,302.5444,943.5665,306.8299,946.4225,310.433z"/>
	<path fill="#F0F0F0" d="M712.2823,176.1408c-1.5898-1.4519-8.5959,2.3072-8.2122-5.2406c0.1445-2.8432,1.1702-5.8742,4.9139-4.0471
		c3.5703,1.7425,10.5165-1.2326,10.008,6.5533C718.7891,176.5126,717.5353,178.7729,712.2823,176.1408z"/>
	<path fill="#E8E8E8" d="M592.7941,164.774c-3.4206,0.116-6.9268,1.4312-7.2208-4.0189c-0.3759-6.9679,4.7236-4.626,7.9711-4.9158
		c3.1487-0.281,7.3801-2.0084,7.3432,4.3158C600.8455,167.3653,595.3126,163.3111,592.7941,164.774z"/>
	<path fill="#FAFAFA" d="M162.9146,608.832c-0.1643-3.6021-1.2021-7.0624,4.2248-7.1166c6.3611-0.0635,4.2669,4.4865,4.3157,7.5236
		c0.049,3.0513,2.2943,7.6483-4.0951,7.6446C160.2343,616.8795,164.1442,611.3647,162.9146,608.832z"/>
	<path fill="#FEFEFE" d="M622.5413,155.5938c3.0896,1.1772,8.002-1.7442,7.9758,4.7201c-0.0223,5.5054-3.6733,4.7707-6.7655,4.1658
		c-3.1436-0.6149-8.6604,2.3838-8.3083-4.783C615.7229,154.0059,619.9851,156.4256,622.5413,155.5938z"/>
	<path fill="#030203" d="M608.8054,937.3037c-185.4191-0.2675-332.7791-149.0107-335.9536-329.1086
		c-3.4115-193.5477,153.2086-343.0598,336.1965-342.6841c181.6147,0.3728,327.944,144.684,335.1323,320.6631
		C952.3801,786.9065,790.3893,938.0692,608.8054,937.3037z"/>
	<path fill="#FEFEFE" d="M609.0104,924.8943c-173.6757-0.0783-307.9279-133.5273-322.8492-292.4438
		c-18.5613-197.685,140.4107-355.1892,322.6445-354.6847c172.9641,0.4789,317.7263,137.3399,323.3021,312.2779
		C938.241,782.4698,782.2717,925.8839,609.0104,924.8943z"/>
</g>
<rect fill="none" stroke="#000000" stroke-miterlimit="10" width="1200" height="1200"/>
</svg>
